HIERARCHY
ROOT Hips
{
	OFFSET 0.00000 0.00000 0.00000
	CHANNELS 6 Xposition Yposition Zposition Zrotation Yrotation Xrotation 
	JOINT LHipJoint
	{
		OFFSET 0 0 0
		CHANNELS 3 Zrotation Yrotation Xrotation
		JOINT LeftUpLeg
		{
			OFFSET 1.49715 -1.76614 1.90432
			CHANNELS 3 Zrotation Yrotation Xrotation
			JOINT LeftLeg
			{
				OFFSET 2.35844 -6.47976 0.00000
				CHANNELS 3 Zrotation Yrotation Xrotation
				JOINT LeftFoot
				{
					OFFSET 2.73785 -7.52219 0.00000
					CHANNELS 3 Zrotation Yrotation Xrotation
					JOINT LeftToeBase
					{
						OFFSET 0.14074 -0.40172 2.02264
						CHANNELS 3 Zrotation Yrotation Xrotation
						End Site
						{
							OFFSET 0.00000 -0.00000 1.04539
						}
					}
				}
			}
		}
	}
	JOINT RHipJoint
	{
		OFFSET 0 0 0
		CHANNELS 3 Zrotation Yrotation Xrotation
		JOINT RightUpLeg
		{
			OFFSET -0.96261 -1.76614 1.90432
			CHANNELS 3 Zrotation Yrotation Xrotation
			JOINT RightLeg
			{
				OFFSET -2.38693 -6.55804 0.00000
				CHANNELS 3 Zrotation Yrotation Xrotation
				JOINT RightFoot
				{
					OFFSET -2.65769 -7.30194 0.00000
					CHANNELS 3 Zrotation Yrotation Xrotation
					JOINT RightToeBase
					{
						OFFSET -0.22087 -0.60685 2.05176
						CHANNELS 3 Zrotation Yrotation Xrotation
						End Site
						{
							OFFSET -0.00011 -0.00128 1.07650
						}
					}
				}
			}
		}
	}
	JOINT LowerBack
	{
		OFFSET 0 0 0
		CHANNELS 3 Zrotation Yrotation Xrotation
		JOINT Spine
		{
			OFFSET -0.03634 1.88467 0.28386
			CHANNELS 3 Zrotation Yrotation Xrotation
			JOINT Spine1
			{
				OFFSET -0.03393 1.87370 -0.16959
				CHANNELS 3 Zrotation Yrotation Xrotation
				JOINT Neck
				{
					OFFSET 0 0 0
					CHANNELS 3 Zrotation Yrotation Xrotation
					JOINT Neck1
					{
						OFFSET -0.03729 2.05330 -0.42975
						CHANNELS 3 Zrotation Yrotation Xrotation
						JOINT Head
						{
							OFFSET 0.22896 2.10694 0.01084
							CHANNELS 3 Zrotation Yrotation Xrotation
							End Site
							{
								OFFSET 0.09101 2.14588 0.03889
							}
						}
					}
				}
				JOINT LeftShoulder
				{
					OFFSET 0 0 0
					CHANNELS 3 Zrotation Yrotation Xrotation
					JOINT LeftArm
					{
						OFFSET 4.11898 1.88020 1.39256
						CHANNELS 3 Zrotation Yrotation Xrotation
						JOINT LeftForeArm
						{
							OFFSET 4.72096 -0.00000 0.00000
							CHANNELS 3 Zrotation Yrotation Xrotation
							JOINT LeftHand
							{
								OFFSET 3.18148 -0.00000 0.00000
								CHANNELS 3 Zrotation Yrotation Xrotation
								JOINT LeftFingerBase
								{
									OFFSET 0 0 0
									CHANNELS 3 Zrotation Yrotation Xrotation
									JOINT LeftHandIndex1
									{
										OFFSET 0.84872 -0.00000 0.00000
										CHANNELS 3 Zrotation Yrotation Xrotation
										End Site
										{
											OFFSET 0.68426 -0.00000 0.00000
										}
									}
								}
								JOINT LThumb
								{
									OFFSET 0 0 0
									CHANNELS 3 Zrotation Yrotation Xrotation
									End Site
									{
										OFFSET 0.69470 -0.00000 0.69470
									}
								}
							}
						}
					}
				}
				JOINT RightShoulder
				{
					OFFSET 0 0 0
					CHANNELS 3 Zrotation Yrotation Xrotation
					JOINT RightArm
					{
						OFFSET -3.95234 1.59593 0.39942
						CHANNELS 3 Zrotation Yrotation Xrotation
						JOINT RightForeArm
						{
							OFFSET -4.76918 -0.00000 0.00000
							CHANNELS 3 Zrotation Yrotation Xrotation
							JOINT RightHand
							{
								OFFSET -3.36438 0.00089 -0.00051
								CHANNELS 3 Zrotation Yrotation Xrotation
								JOINT RightFingerBase
								{
									OFFSET 0 0 0
									CHANNELS 3 Zrotation Yrotation Xrotation
									JOINT RightHandIndex1
									{
										OFFSET -0.76769 -0.00000 0.00000
										CHANNELS 3 Zrotation Yrotation Xrotation
										End Site
										{
											OFFSET -0.61894 -0.00000 0.00000
										}
									}
								}
								JOINT RThumb
								{
									OFFSET 0 0 0
									CHANNELS 3 Zrotation Yrotation Xrotation
									End Site
									{
										OFFSET -0.62838 -0.00000 0.62838
									}
								}
							}
						}
					}
				}
			}
		}
	}
}
MOTION
Frames: 10
Frame Time: .0083333
-0.803 17.5261 0.0485 0 0 0 0 0 0 -21 0 0 0 0 0 0 0 0 0 0 0 0 0 0 21 0 0 0 0 0 0 0 0 0 0 0 0 0 0 0 0 0 0 0 0 0 0 -16 0 0 21 0 0 11 0 0 0 -8 0 0 0 0 0 0 0 0 0 0 0 0 0 0 0 0 0 0 0 0 8 0 0 0 0 0 0 0 0 0 0 0 0 0 0 0 0 0
-0.8030 17.5261 0.0485 3.3778 -7.6003 11.2241 0.0000 0.0000 0.0000 -16.3481 -13.8810 -9.2196 1.1146 6.7070 18.8501 1.0938 16.4537 -31.6117 0.2678 -3.3287 -9.1952 0.0000 0.0000 0.0000 8.4846 -0.7397 -22.8074 -2.4077 -9.6682 27.9088 -0.5789 -8.5606 -19.9525 -1.2605 7.1169 -20.0623 -1.9067 1.6536 -21.5922 -2.1385 3.1578 5.1145 -0.2767 1.3421 18.3447 -9.2899 -3.4418 18.8406 14.3024 -5.8962 0.7381 6.3634 -3.5855 -2.1204 0.0000 0.0000 0.0000 -73.7547 -22.1049 -28.2675 25.1131 -36.3194 -8.3568 -0.0000 0.0000 -3.6694 26.1880 29.0459 13.4293 -7.1250 0.0000 -0.0000 -5.5710 61.6475 -2.2610 0.0000 0.0000 0.0000 81.8972 20.4332 -38.4620 -18.9059 29.3016 -4.9847 0.0000 0.0000 5.9404 -24.3675 20.6351 -9.0691 7.1250 -0.0000 -0.0000 2.6526 -7.5394 2.2841
-0.8038 17.5276 0.0489 3.4086 -7.5941 11.2416 0.0000 0.0000 0.0000 -16.3540 -13.9306 -9.2908 1.1201 6.7229 18.8970 1.0414 16.6763 -31.5040 0.2999 -3.5215 -9.7341 0.0000 0.0000 0.0000 8.4581 -0.7032 -22.7563 -2.4017 -9.6569 27.8727 -0.5976 -8.3199 -19.9292 -1.2859 7.1857 -20.2667 -1.9667 1.6398 -21.7636 -2.1351 3.1661 5.1931 -0.2310 1.3351 18.5501 -8.6525 -3.4218 18.7216 13.6899 -5.7245 0.4875 6.0532 -3.4721 -2.2260 0.0000 -0.0000 0.0000 -73.7392 -22.3734 -28.4728 24.9873 -36.1910 -8.2824 -0.0000 0.0000 -3.4771 26.2194 28.9895 13.4243 -7.1250 0.0000 -0.0000 -5.5047 61.5969 -2.2274 0.0000 -0.0000 0.0000 81.8176 20.7207 -38.9239 -18.7822 29.1472 -4.9243 0.0000 0.0000 6.1862 -23.8348 21.0682 -9.0238 7.1250 -0.0000 -0.0000 3.0351 -7.1682 2.6364
-0.8039 17.5276 0.0483 3.4300 -7.6109 11.2346 0.0000 0.0000 0.0000 -16.3788 -13.9655 -9.2696 1.1200 6.7227 18.8963 1.0264 16.7668 -31.5003 0.2798 -3.4022 -9.4006 0.0000 0.0000 0.0000 8.4323 -0.6829 -22.7649 -2.4016 -9.6568 27.8724 -0.6063 -8.1335 -19.8555 -1.2886 7.1930 -20.2884 -2.0003 1.6304 -21.8456 -2.1371 3.1694 5.2505 -0.2109 1.3309 18.6739 -8.0540 -3.4272 18.6235 13.0377 -5.6101 0.3383 5.7396 -3.3848 -2.2959 -0.0000 0.0000 0.0000 -73.7338 -22.4434 -28.5137 24.9800 -36.1835 -8.2781 -0.0000 0.0000 -3.3622 25.8206 28.8465 13.1402 -7.1250 0.0000 -0.0000 -5.8987 61.3468 -2.3525 -0.0000 0.0000 0.0000 81.8234 20.8518 -38.9486 -18.7774 29.1412 -4.9220 0.0000 0.0000 6.1337 -23.7146 21.1237 -8.9956 7.1250 -0.0000 -0.0000 3.1169 -7.1294 2.7100
-0.8026 17.5269 0.0467 3.4345 -7.6693 11.2273 0.0000 0.0000 0.0000 -16.3924 -13.9656 -9.2632 1.1214 6.7267 18.9083 1.0805 16.6018 -31.6754 0.2454 -3.1876 -8.8014 0.0000 0.0000 0.0000 8.4194 -0.6325 -22.7890 -2.3998 -9.6534 27.8616 -0.6048 -8.0231 -19.7432 -1.3017 7.2279 -20.3923 -1.9903 1.6499 -21.8771 -2.1486 3.1975 5.2771 -0.2189 1.3442 18.7295 -7.6100 -3.4360 18.5714 12.5704 -5.5331 0.2222 5.5144 -3.3256 -2.3508 -0.0000 -0.0000 0.0000 -73.7011 -22.4501 -28.4587 24.9733 -36.1767 -8.2741 -0.0000 0.0000 -3.2406 25.4257 28.7122 12.8646 -7.1250 0.0000 -0.0000 -6.2891 61.1079 -2.4732 -0.0000 -0.0000 0.0000 81.8570 20.8562 -38.7919 -18.8102 29.1822 -4.9380 0.0000 0.0000 5.9519 -23.7300 21.0781 -8.9838 7.1250 -0.0000 -0.0000 3.1025 -7.1753 2.6948
-0.8008 17.5259 0.0462 3.4206 -7.6746 11.2140 0.0000 0.0000 0.0000 -16.3798 -13.9206 -9.2692 1.1220 6.7287 18.9139 1.0989 16.4902 -31.6797 0.2386 -3.1439 -8.6795 0.0000 0.0000 0.0000 8.4285 -0.6361 -22.7557 -2.3982 -9.6504 27.8519 -0.6206 -7.8147 -19.7274 -1.2575 7.1090 -20.0386 -1.9624 1.6516 -21.8440 -2.1441 3.1887 5.2594 -0.2335 1.3440 18.6870 -7.3189 -3.4334 18.5247 12.2334 -5.4800 0.2300 5.3551 -3.2826 -2.3602 -0.0000 0.0000 0.0000 -73.7071 -22.3999 -28.4261 24.9800 -36.1835 -8.2781 -0.0000 0.0000 -3.1508 25.4010 28.7750 12.8756 -7.1250 0.0000 -0.0000 -6.3508 61.1667 -2.5065 -0.0000 0.0000 0.0000 81.8567 20.7566 -38.6641 -18.8294 29.2062 -4.9474 0.0000 0.0000 5.8418 -23.6861 21.0607 -8.9585 7.1250 -0.0000 -0.0000 3.1287 -7.2011 2.7160
-0.7999 17.5250 0.0465 3.4423 -7.6598 11.1932 0.0000 0.0000 0.0000 -16.4118 -13.9209 -9.2531 1.1241 6.7347 18.9318 1.0345 16.6991 -31.4835 0.2864 -3.4419 -9.5115 0.0000 0.0000 0.0000 8.3881 -0.5618 -22.6720 -2.3959 -9.6461 27.8381 -0.6182 -7.7925 -19.6834 -1.2315 7.0376 -19.8268 -1.9833 1.6355 -21.7637 -2.1589 3.1697 5.2001 -0.2483 1.3368 18.5600 -7.0601 -3.4212 18.5427 11.9615 -5.4249 0.2858 5.2232 -3.2429 -2.3631 0.0000 -0.0000 0.0000 -73.6997 -22.2440 -28.3640 25.0280 -36.2326 -8.3064 -0.0000 0.0000 -3.1399 25.7651 29.1206 13.2186 -7.1250 0.0000 -0.0000 -6.1085 61.6168 -2.4755 0.0000 -0.0000 0.0000 81.9478 20.5687 -38.4476 -18.9178 29.3164 -4.9905 0.0000 0.0000 5.6794 -23.6538 20.9670 -8.9076 7.1250 -0.0000 -0.0000 3.1399 -7.3061 2.7193
-0.7990 17.5255 0.0453 3.4366 -7.6883 11.1908 0.0000 0.0000 0.0000 -16.4176 -13.9477 -9.2345 1.1221 6.7289 18.9147 1.0096 16.8337 -31.4623 0.3051 -3.5512 -9.8173 0.0000 0.0000 0.0000 8.3763 -0.5183 -22.6717 -2.3974 -9.6489 27.8471 -0.6126 -7.7617 -19.5994 -1.2002 6.9508 -19.5698 -1.9616 1.6423 -21.7264 -2.1732 3.1722 5.1703 -0.2776 1.3425 18.5005 -6.8780 -3.4317 18.5372 11.7687 -5.4108 0.3253 5.1308 -3.2266 -2.3597 -0.0000 0.0000 0.0000 -73.6543 -22.1675 -28.3424 25.0697 -36.2752 -8.3311 -0.0000 0.0000 -3.1676 26.1587 29.5666 13.6234 -7.1250 0.0000 -0.0000 -5.8845 62.1801 -2.4627 -0.0000 0.0000 0.0000 82.0436 20.4635 -38.2312 -18.9977 29.4159 -5.0297 0.0000 0.0000 5.4888 -23.5282 21.0183 -8.8757 7.1250 -0.0000 -0.0000 3.2248 -7.2726 2.7951
-0.7980 17.5266 0.0424 3.4452 -7.7195 11.2057 0.0000 0.0000 0.0000 -16.4345 -13.9414 -9.1959 1.1076 6.6866 18.7902 1.0463 16.7146 -31.5734 0.2614 -3.2890 -9.0843 0.0000 0.0000 0.0000 8.3616 -0.5602 -22.7679 -2.4105 -9.6733 27.9250 -0.6227 -7.6422 -19.6023 -1.1387 6.7766 -19.0553 -1.9638 1.6451 -21.7492 -2.1732 3.1794 5.2085 -0.2732 1.3444 18.5637 -6.8284 -3.4625 18.3906 11.6950 -5.4427 0.3829 5.0951 -3.2343 -2.3197 0.0000 -0.0000 0.0000 -73.5897 -22.2847 -28.4112 25.0367 -36.2414 -8.3116 -0.0000 0.0000 -3.2524 26.4858 29.7768 13.8988 -7.1250 0.0000 -0.0000 -5.6094 62.4835 -2.3873 0.0000 -0.0000 0.0000 82.0183 20.5524 -38.1797 -18.9997 29.4183 -5.0307 0.0000 0.0000 5.4159 -23.3692 21.1309 -8.8539 7.1250 -0.0000 -0.0000 3.3367 -7.1797 2.8986
-0.7966 17.5209 0.0410 3.4545 -7.7232 11.2005 0.0000 0.0000 0.0000 -16.4699 -13.7982 -9.0398 1.0890 6.6321 18.6300 1.2770 15.6930 -32.0175 0.1147 -2.1840 -6.0145 0.0000 0.0000 0.0000 8.3557 -0.6851 -22.8785 -2.4285 -9.7066 28.0319 -0.6359 -7.5177 -19.6344 -1.0854 6.6215 -18.5987 -1.9549 1.6385 -21.7611 -2.1813 3.1715 5.2461 -0.2905 1.3420 18.6207 -6.8742 -3.4828 18.2322 11.7659 -5.4764 0.4614 5.1198 -3.2488 -2.2666 0.0000 0.0000 0.0000 -73.5434 -22.4116 -28.6283 24.9947 -36.1986 -8.2868 -0.0000 0.0000 -3.1820 26.4200 29.6695 13.8167 -7.1250 0.0000 -0.0000 -5.6292 62.3550 -2.3787 0.0000 0.0000 0.0000 82.0296 20.6130 -38.1045 -19.0128 29.4345 -5.0371 0.0000 0.0000 5.3784 -23.3130 21.1998 -8.8575 7.1250 -0.0000 -0.0000 3.3791 -7.1161 2.9397
